<?xml version="1.0" standalone="no"?>
<!DOCTYPE svg PUBLIC "-//W3C//DTD SVG 20010904//EN"
 "http://www.w3.org/TR/2001/REC-SVG-20010904/DTD/svg10.dtd">
<svg version="1.0" xmlns="http://www.w3.org/2000/svg"
 width="237.000000pt" height="146.000000pt" viewBox="0 0 237.000000 146.000000"
 preserveAspectRatio="xMidYMid meet">

<g transform="translate(0.000000,146.000000) scale(0.100000,-0.100000)"
fill="#000000" stroke="none">
<path d="M1951 1422 c-67 -22 -74 -27 -93 -67 l-21 -43 -111 -11 c-110 -10
-194 -16 -376 -26 -52 -3 -111 -8 -132 -10 -31 -4 -40 -1 -61 25 -35 41 -64
50 -159 50 -65 0 -79 -3 -75 -14 4 -10 -4 -17 -26 -21 -55 -12 -111 -42 -148
-80 -42 -41 -52 -76 -33 -104 8 -11 13 -30 12 -42 -4 -34 45 -42 212 -35 150
6 251 23 257 42 4 12 -45 33 -81 35 -12 0 49 13 134 29 115 20 162 25 185 18
16 -5 131 -13 255 -17 124 -4 209 -9 190 -10 -51 -4 -153 -34 -157 -47 -14
-43 482 -52 580 -11 57 24 46 62 -15 50 -23 -4 -27 0 -38 34 -7 21 -16 42 -21
48 -11 11 -12 35 -1 35 4 0 13 -19 20 -43 7 -23 17 -48 21 -56 11 -17 39 -8
48 16 4 10 12 22 20 26 20 12 15 34 -9 41 -22 7 -22 7 -3 15 19 8 19 8 -2 15
-28 9 -30 36 -3 36 15 0 19 6 18 25 -1 13 -4 22 -7 20 -2 -3 -14 8 -25 24 -12
15 -27 26 -35 23 -8 -2 -11 0 -8 5 4 6 -4 8 -18 5 -18 -3 -26 -13 -31 -38 -9
-49 -3 -56 30 -39 22 12 26 12 17 1 -6 -7 -9 -21 -5 -30 8 -20 -14 -21 -40 -1
-15 12 -18 22 -13 59 5 31 3 46 -6 49 -7 3 2 6 18 7 l30 2 -30 8 c-16 4 -47 8
-68 9 -21 0 -36 5 -33 10 11 17 -92 7 -163 -17z m249 -157 c7 -9 9 -22 5 -32
-7 -17 -8 -16 -13 2 -2 11 -9 26 -14 33 -7 8 -7 12 0 12 5 0 15 -7 22 -15z
m-55 -5 c3 -5 0 -10 -7 -11 -9 0 -10 -2 -1 -5 7 -3 9 -12 6 -20 -5 -13 -7 -13
-14 -2 -12 18 -11 48 0 48 6 0 13 -4 16 -10z m-665 -3 c0 -2 -10 -12 -22 -23
l-23 -19 19 23 c18 21 26 27 26 19z m300 -17 c0 -17 -37 -26 -178 -45 -136
-17 -186 -15 -90 4 29 6 94 20 143 30 108 23 125 24 125 11z m-750 -60 c52 -6
97 -13 100 -17 6 -6 -231 7 -242 14 -19 10 -6 22 20 18 15 -3 70 -9 122 -15z
m1190 -39 c18 -7 20 -10 7 -10 -9 -1 -32 14 -50 32 -18 17 -21 22 -7 10 14
-12 36 -26 50 -32z"/>
<path d="M1602 1068 c-24 -24 -11 -78 19 -78 22 0 52 42 47 67 -4 22 -48 29
-66 11z"/>
<path d="M1253 1025 c-63 -32 -157 -129 -184 -190 -42 -95 -33 -196 20 -225
38 -20 113 -11 180 20 35 17 65 29 67 28 1 -2 -2 -25 -7 -52 -6 -34 -6 -53 2
-63 12 -14 59 -18 60 -5 0 4 1 41 3 82 2 44 12 102 25 139 24 68 20 85 -20 79
-17 -2 -26 -13 -34 -40 -13 -48 -47 -83 -112 -114 -134 -66 -190 -7 -124 131
39 83 135 168 196 175 40 4 54 0 60 -20 10 -30 41 -25 55 10 11 26 10 33 -5
50 -27 30 -116 27 -182 -5z"/>
<path d="M463 900 c-53 -72 -101 -129 -106 -127 -5 1 -22 39 -38 82 -62 172
-58 165 -89 165 -31 0 -40 -14 -40 -66 0 -19 -16 -98 -36 -176 -40 -161 -41
-193 -5 -193 23 0 26 7 43 85 10 47 25 119 34 160 l17 74 36 -99 c53 -146 70
-144 198 28 36 48 68 86 70 83 3 -2 0 -53 -7 -113 -6 -59 -10 -130 -8 -158 3
-44 6 -50 27 -53 33 -5 41 13 34 83 -3 33 2 122 11 198 10 75 14 142 11 147
-3 6 -17 10 -31 10 -19 0 -43 -25 -121 -130z"/>
<path d="M926 904 c-3 -9 -6 -37 -6 -62 0 -61 -15 -88 -68 -129 -53 -41 -89
-43 -98 -8 -7 27 9 101 30 144 17 36 10 63 -17 59 -27 -4 -44 -38 -63 -128
-16 -78 -7 -143 22 -154 44 -17 103 4 163 58 l24 21 -8 -50 c-9 -62 -41 -149
-61 -166 -29 -24 -144 1 -144 31 0 15 -30 12 -36 -4 -16 -43 64 -96 145 -96
43 0 52 4 80 35 51 59 91 236 91 408 0 54 -1 57 -24 57 -13 0 -27 -7 -30 -16z"/>
<path d="M1713 883 c-5 -16 -8 -89 -8 -163 0 -125 1 -135 19 -138 22 -5 46 22
46 50 0 38 43 128 81 172 37 42 79 61 79 36 0 -5 11 -10 25 -10 21 0 25 5 25
28 0 38 -17 52 -62 52 -31 0 -45 -7 -78 -40 -21 -21 -50 -61 -64 -87 l-24 -48
5 45 c3 25 8 59 12 75 10 41 4 55 -25 55 -17 0 -26 -7 -31 -27z m14 -110 c-2
-16 -4 -5 -4 22 0 28 2 40 4 28 2 -13 2 -35 0 -50z m14 -140 c-9 -15 -10 -14
-7 7 6 35 7 37 12 23 3 -7 1 -20 -5 -30z"/>
<path d="M2089 887 c-54 -36 -92 -108 -97 -181 -4 -56 -1 -65 23 -94 23 -28
33 -32 74 -32 56 0 104 29 146 90 52 74 44 198 -14 230 -34 17 -96 12 -132
-13z m120 -72 c19 -38 -1 -100 -44 -141 -41 -39 -67 -46 -94 -27 -49 34 -3
178 64 203 29 11 58 -3 74 -35z"/>
<path d="M1555 888 c-12 -39 -36 -222 -33 -259 3 -40 6 -44 31 -47 30 -4 30
-4 28 83 -1 33 7 94 17 136 10 41 17 80 14 87 -5 16 -52 15 -57 0z"/>
<path d="M105 436 c-64 -29 -112 -102 -99 -151 15 -62 127 -111 228 -102 75 7
126 24 107 36 -7 5 27 8 76 8 48 0 137 3 197 8 96 7 110 6 118 -9 17 -30 87
-57 176 -67 48 -5 121 -17 162 -25 63 -14 79 -22 103 -51 45 -53 100 -76 182
-77 47 0 80 6 102 17 33 18 57 43 32 35 -14 -5 -59 46 -59 67 0 7 9 20 20 30
11 10 24 32 29 49 7 23 9 26 10 10 1 -28 -23 -86 -32 -77 -4 3 -7 1 -7 -5 0
-20 5 -27 18 -27 7 0 17 -7 22 -15 8 -13 12 -13 27 3 15 14 18 34 18 105 0 92
-20 152 -50 152 -8 0 -15 5 -15 11 0 5 6 7 13 3 6 -4 3 2 -7 14 -11 12 -35 26
-55 31 -60 15 -160 21 -166 11 -3 -6 -22 -10 -41 -10 -27 0 -42 -7 -59 -27
-13 -16 -35 -41 -49 -58 l-26 -30 2 30 3 30 -90 2 c-49 2 -126 -4 -171 -12
-44 -8 -109 -15 -145 -15 -35 0 -109 -7 -164 -15 -124 -18 -115 -18 -115 0 0
10 10 15 30 15 43 0 115 30 98 41 -17 12 -31 11 -23 0 8 -14 -26 -18 -62 -7
-33 9 -45 26 -20 26 6 1 -1 12 -18 25 -35 29 -109 40 -180 26 -30 -6 -51 -6
-53 0 -5 13 -32 11 -67 -5z m75 -35 c0 -5 -7 -11 -15 -15 -9 -3 -15 0 -15 9 0
8 7 15 15 15 8 0 15 -4 15 -9z m-29 -54 c-10 -9 -11 -8 -5 6 3 10 9 15 12 12
3 -3 0 -11 -7 -18z m673 -58 c-8 -13 -24 -1 -24 18 0 13 3 13 15 3 8 -7 12
-16 9 -21z m-39 -9 c3 -5 -1 -10 -10 -10 -9 0 -13 5 -10 10 3 6 8 10 10 10 2
0 7 -4 10 -10z"/>
</g>
</svg>
